# xmcd
#
# Track frame offsets:
#	150
#	13137
#	40632
#	64125
#	93933
#	113977
#	125365
#	144060
#	211494
#	223678
#	238313
#	251178
#	273566
#	292835
#	314255
#	329601
#
# Disc length: 4746 seconds
#
# Revision: 0
# Processed by: cddbd v1.5.2PL0 Copyright (c) Steve Scherf et al.
# Submitted via: audiograbber 1.83.01
#
DISCID=f4128810
DTITLE=James Brown - Double Dynamite
DYEAR=2007
DGENRE=Funk
TTITLE0=Gonna Have A Funky Good Time (Doing It To Death)
TTITLE1=Get Up Offa That Thing
TTITLE2=Body Heat
TTITLE3=Sex Machine
TTITLE4=Try Me
TTITLE5=Papa's Got A Brand New Bag
TTITLE6=Get On The Good Foot
TTITLE7=Medley: Man's World, Lost Someone, Man's World (Reprise)
TTITLE8=I Got The Feeling
TTITLE9=Cold Sweat
TTITLE10=Please, Please, Please
TTITLE11=Jam
TTITLE12=Medley: The Payback, It's To Funky In Here
TTITLE13=Prisoner Of Love
TTITLE14=I Got You (I Feel Good)
TTITLE15=Georgia On My Mind
EXTD=
EXTT0=
EXTT1=
EXTT2=
EXTT3=
EXTT4=
EXTT5=
EXTT6=
EXTT7=
EXTT8=
EXTT9=
EXTT10=
EXTT11=
EXTT12=
EXTT13=
EXTT14=
EXTT15=
PLAYORDER=
